<?xml version="1.0" encoding="UTF-8"?>
<svg id="Capa_2" data-name="Capa 2" xmlns="http://www.w3.org/2000/svg" viewBox="0 0 356.21 360.85">
  <defs>
    <style>
      .cls-1 {
        fill: #f2f2f2;
      }
    </style>
  </defs>
  <g id="Capa_1-2" data-name="Capa 1">
    <g>
      <path class="cls-1" d="m115.56,199.97c18.36.27,32.15,15.1,41.75,29.14,11.23,16.41,21.92,33.18,32.2,50.19,10.14,16.79,19.87,33.82,29.32,51,3.4,6.19,10.02,14.86.94,19.09-8.36,3.9-17.73,7.93-26.65,10.3-8.36,2.23-17.49,1.3-24.82-3.46-7.45-4.84-11.82-13.19-16.96-20.19-5.6-7.62-11.72-14.78-17.94-21.89-6.37-7.29-12.49-15-20.56-20.5-15.25-10.38-34.1-11.95-51.8-7.98-8.61,1.93-17.88,4.01-26.52.95-7.12-2.53-11.22-8.66-13.04-15.76-2.3-8.98-1.91-19.94,3.64-27.68,5.7-7.97,15.05-11.02,23.64-14.81,10.36-4.57,20.75-9.19,30.93-14.15,9.08-4.42,18.29-11.12,28.29-13.16,2.5-.51,5.05-.74,7.58-1.09Z"/>
      <path class="cls-1" d="m285.6,78.44c9.6-1.58,19.53-4.17,29.28-4.37,7.05-.14,14.46,1.14,19.64,6.32,11.15,11.16,8.62,35.4-4.21,44.34-7.17,4.99-16.42,7.6-24.38,11.1-9.24,4.06-18.34,8.46-27.39,12.93-7.97,3.94-16.17,8.71-24.62,11.52-8.92,2.97-17.87,1.04-25.79-3.71-16.23-9.74-26.43-27.19-36.21-42.78-10.47-16.68-20.63-33.55-30.53-50.58-4.98-8.57-9.71-17.29-14.53-25.95-2.16-3.87-4.38-7.74-6.34-11.71-1.42-2.88-3.84-7.21-2.54-10.55,1.16-2.98,4.84-3.9,7.51-4.96,4.74-1.9,9.48-3.81,14.26-5.64,9.57-3.66,18.73-6.35,28.76-2.53,9.25,3.52,13.76,11.07,18.92,18.95,5.82,8.87,12.5,16.95,19.54,24.87,6.98,7.86,13.76,16.52,22.38,22.65,8.53,6.07,17.97,9.16,28.32,10.11,2.65,0,5.3,0,7.94,0Z"/>
      <path class="cls-1" d="m356.05,183.82c-1.5,17.7-20.68,24.09-32.94,33.5-13.73,10.52-27.95,23.27-37.6,37.75-10.55,15.85-6.32,35.24-3.24,52.62,1.43,8.09,1.95,16.92-2.5,24.22-4.36,7.16-11.58,10.61-19.8,10.72-8.4.11-17.24-2.62-23.3-8.65-6.15-6.13-7.68-15.32-10.63-23.18-6.64-17.7-15.49-34.12-25-50.41-4.75-8.13-5.08-16.02-.97-24.52,3.5-7.24,8.29-13.94,14.01-19.59,6.33-6.26,13.98-10.87,21.4-15.7,8.19-5.32,16.45-10.55,24.78-15.65,19.12-11.73,38.61-22.89,58.14-33.93,4.77-2.7,9.56-5.35,14.37-7.97,4.32-2.35,8.63-4.7,11.93.48,2.74,4.31,4.44,9.83,6.39,14.55,2.27,5.5,3.6,10.81,4.96,16.58,0,3.06,0,6.12-.01,9.18Z"/>
      <path class="cls-1" d="m75.78,104.83c.12-.51.23-1.02.35-1.53,2.52.15,4.11-5.85,1.57-6.38.64-3.92,1.09-7.86.86-11.84.49-.45,1.23-.81,1.41-1.36.33-1.05-.47-1.5-1.41-1.68v-3.34c2.27-1.62,1.3-4.53-.69-6.07l-.22-.31c2.05-.27,1.25-1.69,1.17-2.84-.08-1.21-.83-1.48-1.85-1.4-.06-.1-.11-.21-.17-.31,1.49-.72.88-1.29.48-2.86.64-1.2.52-1.61-.9-2.42,1.14-1.91.55-3.62-1.54-4.43-.16-3.11-.47-6.23-.42-9.33.03-1.76.67-3.51,1.03-5.26,2.1.27,1.72-1.72,2.29-3.07.67-1.57,2.3-2.49,1.07-4.21.11-.2.21-.4.32-.6,2.07.68,1.68-.49,2.8-1.58,1.18-1.16,3.47-1.39,3.93-3.26,1.57-.34,5.25-.51,5.1-2.71.3-.12.61-.24.91-.35.29.05.62.03.86.17,1.96,1.12,2.2,1.05,3.08-1.03.31,0,.62,0,.92,0,.5.37,1.04,1.08,1.49,1.03.46-.05.83-.86,1.24-1.33h3.95c.64,1.34,2.92,1.64,4.24.57,2.63,1.03,5.26,2.05,7.9,3.08.41,1.71,2.23,2.99,4.26,2.98.5.5,1.01,1.01,1.51,1.51.03.79-.1,1.65.18,2.34.1.25,1.2.09,1.84.12.44.7.89,1.4,1.33,2.1-.51,1.95.03,5.99,2.96,5.78.53,1.11,1.05,2.22,1.58,3.33-1.03,2.53-.37,3.94,1.85,3.95l.88,1.82c-1.01,2.49-.48,3.6,1.76,3.66.22.5.45,1,.67,1.5-1.13,2.31-.71,3.3,1.46,3.36.12.2.24.39.36.59-.95,2.35-.54,3.29,1.46,3.36.12.2.24.39.36.59-.93,2.29-.75,2.83,1.29,3.88-.68,1.6-.32,2.4,1.52,3.34-.68,1.6-.32,2.4,1.52,3.34-.74,1.73-.25,2.47,1.68,2.52.12.3.25.61.37.91-.21.5-.43,1-.64,1.5.52.21,1.04.41,1.56.62h0c-.99,1.98-.9,2.35.74,3.25-.31,2.14-.06,2.47,1.91,2.53.02.1.05.2.07.3-.69,2.38.5,4.72,1.56,6.96,1.06,2.24,1.9,4.2,2.88,6.49,1.28,3.02,2.8,5.94,4.05,8.98.78,1.89,1.03,4.3,3.28,4.9.2,2.54.41,5.07.61,7.61-1.86.79-2.43,2.14-1.74,4.13-1.51.83-1.58,1.2-.62,3.17-.4.81-.79,1.61-1.19,2.42-2.84.82-4.32,4.28-5.73,6.88-1.2,2.2-5.35,4.86-4.32,7.4-.2.2-.39.41-.59.61-3.08-.02-4,.9-3.96,3.97-.31.3-.61.59-.92.89-2.1-.71-1.6.12-2.76,1.25-1.14,1.11-2.75,1.76-4.07,2.75-1.47,1.11-3.09,2.29-4.49,3.37-1.08.83-2.04.76-1.75,2.63h-.01c-.73-.07-1.61-.45-2.16-.18-1.24.61-2.84,1.17-2.37,3.15-.2.13-.41.26-.61.39-.68-.11-1.44-.44-2.01-.23-.31.11-.29,1.13-.42,1.74h0c-2.68-.7-4.22.26-4.24,2.65-.09.04-.19.07-.28.11-.65,0-1.31-.04-1.95,0-1.94.14-3.21,1.44-3.23,3.23-25.71,15.5-51.5,30.72-77.93,44.98-4.5,2.43-11.76,8.09-17.18,6.66-5.41-1.43-8.02-11.11-9.88-15.64-4.81-11.75-10.23-26.98-.95-38.02q2.1-.03,2.09-2.45l2.82-3.03c1.22.35,2.08.45,3.18-.84.79-.93,1.85-1.4,1.58-2.84,0-.1.03-.19.08-.27,2.93,0,7.53-2.72,8.32-4.98,1.37.32,2.54.19,2.67-1.48,2.59-.37,4.59-2.09,6.63-3.62,1.86-1.4,3.89-2.56,5.73-3.98,1.86-1.43,3.62-2.98,5.36-4.53,1.2-1.07,3.04-1.62,2.18-3.61.03-.1.07-.19.1-.29.85-.03,1.76.12,2.51-.17.26-.1.1-1.29.13-1.98.31-.3.62-.59.93-.89,2.05.68,2.97.17,3.03-1.7.01-.35,0-.71,0-1.06,1.52-1.52,3.03-3.04,4.55-4.57.77.9,2.11.9,2.77-.24.59-1.02.8-2.26,1.18-3.4,1.14-1.2,2.27-2.41,3.41-3.61,3.44,1.03,10.14-9.14,9.04-12.48.02-.19.05-.39.07-.58.7-.17,1.61-.12,2.05-.56,1.06-1.05,1.1-3.42.32-4.6Z"/>
      <path class="cls-1" d="m77.18,360.57c-25.19.69-37.48-30.86-20.42-48.61,18.63-19.38,50.89-3.13,49.43,22.69-.74,13.14-12.7,26.52-29.01,25.92Z"/>
      <path class="cls-1" d="m284.52.94c24.82-.3,37.53,30.74,20.84,48.69-17.4,18.71-50.13,4.82-49.73-20.37.24-15.31,11.94-28.13,28.89-28.32Z"/>
      <path class="cls-1" d="m356.21,286.41c-.63,22.91-26.34,35.21-44.59,21.19-8.9-6.84-13.78-18.34-9.77-29.25,3.89-10.58,13.82-19.71,25.4-20.4,13.34-.8,25.65,9.6,28.25,22.5.4,1.96.48,3.98.71,5.97Z"/>
      <path class="cls-1" d="m28.57,109.06c-15.09.92-27.98-14.56-27.15-29.18.79-13.79,15.29-27.05,29.02-26.16,7.33.47,14.32,3.93,19.27,9.34,5.54,6.06,6.95,13.27,6.16,21.24-.66,6.7-3.03,13.11-8.06,17.76-5.47,5.05-12.12,6.09-19.15,7.46-.03-.15-.05-.31-.08-.46Z"/>
      <path class="cls-1" d="m45.71,140.95c.86,1.98-.98,2.54-2.18,3.61-1.74,1.55-3.5,3.1-5.36,4.53-1.84,1.42-3.87,2.58-5.73,3.98-2.04,1.53-4.04,3.25-6.63,3.62-.12,1.67-1.3,1.8-2.67,1.48-.8,2.26-5.39,4.98-8.32,4.98,5.51-3.82,11.04-7.61,16.58-11.39,2.61-1.78,5.24-3.55,7.72-5.52,1.99-1.58,4.24-4.36,6.59-5.28Z"/>
      <path class="cls-1" d="m159.81,116.66c-2.25-.6-2.5-3.01-3.28-4.9-1.25-3.03-2.77-5.95-4.05-8.98-.97-2.29-1.81-4.26-2.88-6.49-1.06-2.23-2.25-4.58-1.56-6.96,3.99,8.84,9.1,18,11.77,27.33Z"/>
      <path class="cls-1" d="m146.82,148.26c-1.03-2.54,3.12-5.2,4.32-7.4,1.42-2.59,2.89-6.05,5.73-6.88-2.38,3.62-4.71,7.27-7.15,10.84-.84,1.23-1.93,2.29-2.9,3.43Z"/>
      <path class="cls-1" d="m73.34,110.56c1.1,3.34-5.6,13.51-9.04,12.48,2.56-3.41,5.13-6.82,7.67-10.25.52-.7.91-1.49,1.37-2.23Z"/>
      <path class="cls-1" d="m128.29,163.73c-.29-1.87.68-1.8,1.75-2.63,1.39-1.07,3.02-2.26,4.49-3.37,1.32-.99,2.93-1.64,4.07-2.75,1.16-1.13.66-1.95,2.76-1.25-4.36,3.33-8.71,6.67-13.07,10Z"/>
      <path class="cls-1" d="m90.96,28.02c.15,2.2-3.53,2.37-5.1,2.71-.46,1.88-2.75,2.11-3.93,3.26-1.11,1.08-.72,2.26-2.8,1.58,2.88-4.19,6.78-6.76,11.82-7.55Z"/>
      <path class="cls-1" d="m144.03,80.22c-1.93-.06-2.42-.79-1.68-2.52-1.84-.93-2.2-1.74-1.52-3.34-1.83-.94-2.2-1.74-1.52-3.34-2.04-1.05-2.22-1.59-1.29-3.88,2,4.36,4,8.72,6,13.08Z"/>
      <path class="cls-1" d="m74.84,58.05c2.09.81,2.68,2.51,1.54,4.43,1.43.81,1.54,1.22.9,2.42.4,1.57,1.01,2.14-.48,2.86-.57-2.6-1.15-5.21-1.7-7.81-.13-.62-.18-1.27-.26-1.9Z"/>
      <path class="cls-1" d="m78.81,36.17c1.23,1.72-.41,2.64-1.07,4.21-.57,1.35-.2,3.34-2.29,3.07.57-2.68,1.58-5.16,3.37-7.28Z"/>
      <path class="cls-1" d="m77.7,96.92c2.54.53.95,6.53-1.57,6.38.52-2.13,1.05-4.25,1.57-6.38Z"/>
      <path class="cls-1" d="m127.63,44.98c-2.93.21-3.47-3.83-2.96-5.78.99,1.93,1.97,3.85,2.96,5.78Z"/>
      <path class="cls-1" d="m158.06,131.57c-.96-1.97-.89-2.34.62-3.17-.69-1.99-.12-3.35,1.74-4.13-.79,2.43-1.57,4.87-2.36,7.3Z"/>
      <path class="cls-1" d="m14.74,163.41c.27,1.44-.8,1.92-1.58,2.84-1.1,1.29-1.95,1.19-3.18.84,1.59-1.23,3.17-2.45,4.76-3.68Z"/>
      <path class="cls-1" d="m60.89,126.66c-.38,1.14-.59,2.38-1.18,3.4-.66,1.14-2,1.14-2.77.24l3.95-3.64Z"/>
      <path class="cls-1" d="m77.87,72.63c1.99,1.53,2.95,4.44.69,6.07-.23-2.02-.46-4.04-.69-6.07Z"/>
      <path class="cls-1" d="m75.78,104.83c.78,1.18.74,3.55-.32,4.6-.44.43-1.35.39-2.05.56.79-1.72,1.58-3.44,2.37-5.16Z"/>
      <path class="cls-1" d="m147.97,89.02c-1.98-.06-2.22-.38-1.91-2.53-1.64-.9-1.73-1.27-.74-3.26.88,1.93,1.77,3.86,2.65,5.79Z"/>
      <path class="cls-1" d="m123.74,166.7c-.47-1.98,1.13-2.54,2.37-3.15.56-.27,1.43.1,2.16.18-1.51.99-3.02,1.98-4.53,2.97Z"/>
      <path class="cls-1" d="m110.99,174.58c.01-1.8,1.29-3.09,3.23-3.23.65-.05,1.3,0,1.95,0-1.73,1.08-3.45,2.16-5.18,3.24Z"/>
      <path class="cls-1" d="m142.28,152.84c-.03-3.07.89-3.99,3.96-3.97-1.32,1.32-2.64,2.65-3.96,3.97Z"/>
      <path class="cls-1" d="m76.96,68.07c1.03-.08,1.77.19,1.85,1.4.08,1.15.89,2.58-1.17,2.84-.23-1.41-.46-2.83-.68-4.24Z"/>
      <path class="cls-1" d="m116.46,171.24c.02-2.38,1.56-3.34,4.24-2.64-1.41.88-2.83,1.76-4.24,2.64Z"/>
      <path class="cls-1" d="m131.07,52.26c-2.23-.01-2.89-1.42-1.85-3.95.62,1.32,1.24,2.63,1.85,3.95Z"/>
      <path class="cls-1" d="m52.39,134.86c0,.35.02.71,0,1.06-.06,1.86-.98,2.38-3.03,1.7,1.01-.92,2.01-1.84,3.02-2.76Z"/>
      <path class="cls-1" d="m133.71,57.74c-2.23-.06-2.77-1.17-1.76-3.66.59,1.22,1.17,2.44,1.76,3.66Z"/>
      <path class="cls-1" d="m119.81,33.13c-2.03,0-3.85-1.27-4.26-2.98l4.26,2.98Z"/>
      <path class="cls-1" d="m135.84,62.6c-2.17-.06-2.6-1.04-1.46-3.36.49,1.12.97,2.24,1.46,3.36Z"/>
      <path class="cls-1" d="m48.44,138.51c-.03.69.14,1.87-.13,1.98-.74.29-1.66.15-2.51.17.88-.72,1.75-1.43,2.63-2.15Z"/>
      <path class="cls-1" d="m137.66,66.55c-2-.07-2.41-1.01-1.46-3.36.49,1.12.97,2.24,1.46,3.36Z"/>
      <path class="cls-1" d="m95.81,26.81c-.88,2.07-1.12,2.15-3.08,1.03-.24-.14-.57-.12-.86-.17l3.94-.86Z"/>
      <path class="cls-1" d="m78.56,82.04c.94.18,1.74.63,1.41,1.68-.17.55-.92.91-1.41,1.36v-3.04Z"/>
      <path class="cls-1" d="m107.65,27.07c-1.32,1.08-3.6.77-4.24-.57,1.41.19,2.83.38,4.24.57Z"/>
      <path class="cls-1" d="m123.34,37.1c-.64-.03-1.74.13-1.84-.12-.28-.69-.15-1.55-.18-2.34.67.82,1.35,1.64,2.02,2.46Z"/>
      <path class="cls-1" d="m120.7,168.59c.13-.61.11-1.63.42-1.74.57-.21,1.33.12,2.01.23-.81.5-1.62,1.01-2.43,1.51Z"/>
      <path class="cls-1" d="m99.46,26.5c-.41.47-.78,1.28-1.24,1.33-.45.05-.99-.65-1.49-1.03.91-.1,1.82-.2,2.73-.3Z"/>
      <path class="cls-1" d="m7.16,170.12q0,2.41-2.09,2.45c.7-.82,1.39-1.63,2.09-2.45Z"/>
      <path class="cls-1" d="m356.05,183.82c0-3.06,0-6.12.01-9.18,0,3.06,0,6.12-.01,9.18Z"/>
      <path class="cls-1" d="m145.32,83.24c-.52-.21-1.04-.41-1.56-.62.21-.5.43-1,.64-1.5.31.71.61,1.41.92,2.12Z"/>
      <path class="cls-1" d="m285.6,78.44c-2.65,0-5.3,0-7.94,0,2.65,0,5.3,0,7.94,0Z"/>
    </g>
  </g>
</svg>