<?xml version="1.0" encoding="UTF-8"?>
<svg id="Capa_2" data-name="Capa 2" xmlns="http://www.w3.org/2000/svg" viewBox="0 0 503.32 449.69">
  <defs>
    <style>
      .cls-1 {
        fill: #fff;
      }
    </style>
  </defs>
  <g id="Capa_1-2" data-name="Capa 1">
    <path class="cls-1" d="m500.58,307.79l-111.22-192.63c-3.79-6.56-10.66-10.23-17.73-10.23-3.47,0-6.99.89-10.21,2.75l-55.77,32.2L230.8,10.23c-3.79-6.56-10.67-10.23-17.73-10.23-3.47,0-6.99.89-10.21,2.75L10.23,113.96c-9.78,5.65-13.13,18.16-7.49,27.94l111.22,192.63c3.79,6.56,10.66,10.23,17.73,10.23,3.47,0,6.98-.89,10.21-2.75l55.77-32.2,74.85,129.65c3.79,6.56,10.67,10.23,17.73,10.23,3.47,0,6.99-.89,10.21-2.75l192.63-111.21c9.78-5.65,13.13-18.16,7.49-27.94Zm-169.83-98.43c2.06,3.56.83,8.13-2.72,10.18l-125.6,72.52-29.86-51.73c-2.06-3.56-.83-8.13,2.72-10.18l125.6-72.52,29.86,51.73Zm-195.35,121.4c-1.16.66-2.4,1-3.71,1-2.71,0-5.12-1.4-6.47-3.73L14,135.4c-2.05-3.56-.83-8.13,2.73-10.18L209.36,14c1.15-.66,2.4-1,3.71-1,2.66,0,5.14,1.43,6.47,3.73l74.85,129.65-125.6,72.51c-9.78,5.65-13.13,18.16-7.48,27.94l29.86,51.73-55.77,32.2Zm351.19-6.29l-192.63,111.22c-1.15.66-2.4,1-3.71,1-2.7,0-5.12-1.4-6.47-3.73l-74.85-129.65,125.6-72.51c9.78-5.65,13.13-18.16,7.48-27.94l-29.86-51.73,55.77-32.2c1.16-.66,2.4-1,3.71-1,2.67,0,5.14,1.43,6.47,3.73l111.22,192.63c2.05,3.56.83,8.13-2.73,10.18Z"/>
  </g>
</svg>